<svg xmlns="http://www.w3.org/2000/svg" xmlns:xlink="http://www.w3.org/1999/xlink" version="1.1" width="155.5769pt" height="40pt" viewBox="0 0 155.5769 40">
<path transform="matrix(1,0,0,-1,0,40)" d="M0 20C0 31.045695 8.954305 40 20 40H135.57686C146.62256 40 155.57689 31.045695 155.57689 20 155.57689 8.954306 146.62259 0 135.57689 0H20.000029C8.954334 0 0 8.954306 0 20Z" fill="#31aeb6"/>
<path transform="matrix(1,0,0,-1,20,27.712006)" d="M0 2.712006ZM9.576 11.480006C9.661334 11.400006 9.722667 11.306673 9.76 11.200006 9.802667 11.093339 9.824 10.986672 9.824 10.880006 9.824 10.773339 9.802667 10.666673 9.76 10.560006 9.722667 10.45334 9.661334 10.360006 9.576 10.280006 9.490667 10.194673 9.394668 10.130672 9.288 10.088006 9.186667 10.04534 9.080001 10.021339 8.968 10.016006 8.856 10.010673 8.746667 10.026672 8.64 10.064006 8.533334 10.106672 8.437334 10.170672 8.352 10.256006 8 10.602673 7.610667 10.86134 7.184 11.032006 6.762667 11.202673 6.325334 11.288006 5.872 11.288006 5.408 11.288006 4.968 11.197339 4.552 11.016006 4.136 10.840006 3.770667 10.594672 3.456 10.280006 3.141334 9.970673 2.890667 9.602673 2.704 9.176006 2.522667 8.754673 2.432 8.301339 2.432 7.816006 2.432 7.352005 2.517334 6.912006 2.688 6.496006 2.864 6.080006 3.104 5.712006 3.408 5.392006 3.717334 5.077339 4.08 4.824006 4.496 4.632006 4.917334 4.445339 5.370667 4.352006 5.856 4.352006 6.272 4.346672 6.672 4.400005 7.056 4.512006 7.440001 4.629339 7.805334 4.832006 8.152 5.120006V6.248006H6.944C6.821333 6.248006 6.706667 6.269339 6.6 6.312006 6.498667 6.360006 6.410667 6.424006 6.336 6.504006 6.261334 6.584006 6.2 6.677339 6.152 6.784006 6.109334 6.890673 6.088 7.005339 6.088 7.128006 6.088 7.245339 6.109334 7.354672 6.152 7.456006 6.2 7.562673 6.261334 7.653339 6.336 7.728006 6.410667 7.808006 6.498667 7.869339 6.6 7.912006 6.706667 7.960006 6.821333 7.984006 6.944 7.984006H9.016001C9.138667 7.984006 9.253334 7.960006 9.360001 7.912006 9.466667 7.869339 9.56 7.810672 9.64 7.736006 9.72 7.661339 9.781334 7.570673 9.824 7.464006 9.872001 7.362673 9.896001 7.250673 9.896001 7.128006V4.736006C9.896001 4.597339 9.869334 4.477339 9.816001 4.376005 9.762667 4.274673 9.693334 4.178673 9.608001 4.088006 9.016001 3.560005 8.402667 3.181338 7.768001 2.952005 7.133334 2.722672 6.477334 2.610672 5.8 2.616006 5.341334 2.616006 4.896 2.67734 4.464 2.800006 4.037333 2.928005 3.634667 3.104006 3.256 3.328006 2.877333 3.552006 2.530667 3.821339 2.216 4.136005 1.901333 4.450672 1.632 4.800005 1.408 5.184006 1.184 5.568006 1.008 5.981339 .88 6.424006 .757333 6.866673 .696 7.328006 .696 7.808006 .696 8.51734 .826667 9.186672 1.088 9.816006 1.354667 10.450673 1.72 11.00534 2.184 11.480006 2.648 11.954673 3.192 12.330673 3.816 12.608006 4.445333 12.88534 5.122667 13.024006 5.848 13.024006 6.573334 13.024006 7.245334 12.893339 7.864 12.632006 8.488 12.376006 9.058667 11.992006 9.576 11.480006ZM12.03125 2.712006ZM14.62325 5.656006C14.692583 5.453339 14.788584 5.272006 14.91125 5.112006 15.03925 4.952005 15.185917 4.813339 15.35125 4.696006 15.516583 4.584005 15.697917 4.496006 15.89525 4.432006 16.097916 4.373339 16.308583 4.344006 16.52725 4.344006 17.07125 4.344006 17.500584 4.488006 17.81525 4.776006 17.97525 4.888006 18.12725 4.954672 18.27125 4.976006 18.41525 4.997339 18.553917 4.986672 18.68725 4.944006 18.777916 4.912006 18.857916 4.861339 18.92725 4.792006 18.996584 4.728006 19.05525 4.656006 19.10325 4.576006 19.209918 4.405339 19.25525 4.213339 19.23925 4.000006 19.22325 3.786673 19.113917 3.59734 18.911252 3.432006 18.793917 3.325339 18.660584 3.221339 18.51125 3.120006 18.361918 3.024006 18.19125 2.938672 17.99925 2.864006 17.807251 2.789339 17.588583 2.730672 17.34325 2.688005 17.10325 2.640006 16.83125 2.616006 16.52725 2.616006 15.99925 2.616006 15.50325 2.714672 15.03925 2.912005 14.575251 3.114672 14.169917 3.389338 13.82325 3.736006 13.476583 4.082672 13.201917 4.485339 12.99925 4.944006 12.796583 5.408006 12.69525 5.904006 12.69525 6.432006 12.69525 6.960006 12.796583 7.456006 12.99925 7.920006 13.201917 8.384007 13.476583 8.786673 13.82325 9.128006 14.169917 9.474672 14.575251 9.746673 15.03925 9.944006 15.50325 10.146672 15.99925 10.248006 16.52725 10.248006 17.044583 10.248006 17.53525 10.14934 17.99925 9.952005 18.463252 9.754673 18.868584 9.485339 19.21525 9.144006 19.561917 8.808006 19.836585 8.410673 20.03925 7.952006 20.24725 7.493339 20.353917 7.002672 20.35925 6.480006 20.35925 6.234673 20.27925 6.034672 20.119252 5.880006 19.964585 5.730672 19.75925 5.656006 19.50325 5.656006H14.62325ZM18.57525 7.096006C18.516585 7.314672 18.42325 7.512006 18.29525 7.688006 18.16725 7.864006 18.015252 8.013339 17.83925 8.136005 17.66325 8.258673 17.465918 8.352006 17.24725 8.416006 17.033917 8.480005 16.804583 8.512006 16.55925 8.512006 16.313918 8.512006 16.081917 8.477339 15.863251 8.408006 15.649917 8.338673 15.45525 8.242673 15.27925 8.120007 15.108583 7.997339 14.961917 7.848006 14.839251 7.672006 14.721917 7.501339 14.633917 7.309339 14.575251 7.096006H18.57525ZM21.9375 2.712006ZM25.4175 10.168006H26.2415C26.364169 10.168006 26.478835 10.144006 26.5855 10.096006 26.692168 10.053339 26.782834 9.992006 26.8575 9.912006 26.9375 9.837339 26.998835 9.746673 27.0415 9.640006 27.0895 9.53334 27.1135 9.421339 27.1135 9.304007 27.1135 9.181339 27.0895 9.066672 27.0415 8.960006 26.998835 8.853339 26.9375 8.760006 26.8575 8.680006 26.782834 8.605339 26.692168 8.544006 26.5855 8.496006 26.478835 8.453339 26.364169 8.432006 26.2415 8.432006H25.4175V3.592006C25.4175 3.469339 25.3935 3.354672 25.3455 3.248006 25.302834 3.141339 25.2415 3.048006 25.1615 2.968005 25.081501 2.888005 24.988167 2.824005 24.8815 2.776006 24.780167 2.733339 24.670834 2.712006 24.553502 2.712006 24.430834 2.712006 24.316166 2.733339 24.2095 2.776006 24.108168 2.824005 24.0175 2.888005 23.9375 2.968005 23.8575 3.048006 23.7935 3.141339 23.7455 3.248006 23.702834 3.354672 23.6815 3.469339 23.6815 3.592006V8.432006H23.1695C23.046833 8.432006 22.932168 8.453339 22.8255 8.496006 22.718834 8.544006 22.6255 8.608006 22.5455 8.688005 22.470833 8.768005 22.4095 8.86134 22.3615 8.968006 22.318835 9.074673 22.2975 9.186672 22.2975 9.304007 22.2975 9.421339 22.318835 9.53334 22.3615 9.640006 22.4095 9.746673 22.470833 9.837339 22.5455 9.912006 22.6255 9.992006 22.718834 10.053339 22.8255 10.096006 22.932168 10.144006 23.046833 10.168006 23.1695 10.168006H23.6815V11.536006C23.6815 11.658672 23.702834 11.770673 23.7455 11.872006 23.7935 11.978673 23.8575 12.06934 23.9375 12.144006 24.0175 12.224006 24.110835 12.285339 24.2175 12.328006 24.3295 12.376006 24.446833 12.400006 24.5695 12.400006 24.686835 12.400006 24.796168 12.376006 24.8975 12.328006 25.004168 12.285339 25.094834 12.224006 25.1695 12.144006 25.244168 12.06934 25.302834 11.978673 25.3455 11.872006 25.3935 11.770673 25.4175 11.658672 25.4175 11.536006V10.168006ZM32.90625 2.712006ZM37.25825 6.984006C36.74625 7.080006 36.276918 7.208006 35.85025 7.368006 35.423585 7.528006 35.052919 7.730673 34.73825 7.976006 34.428918 8.221339 34.18625 8.509339 34.01025 8.840006 33.839586 9.176006 33.75425 9.565339 33.75425 10.008006 33.75425 10.456006 33.847585 10.864006 34.03425 11.232006 34.220918 11.600006 34.471586 11.917339 34.78625 12.184006 35.100919 12.450673 35.463586 12.656006 35.87425 12.800006 36.284917 12.949339 36.71425 13.024006 37.16225 13.024006 37.476919 13.024006 37.78625 12.992006 38.09025 12.928006 38.399583 12.864006 38.69025 12.768006 38.96225 12.640006 39.23425 12.51734 39.48225 12.360006 39.70625 12.168006 39.930253 11.981339 40.11425 11.76534 40.25825 11.520006 40.30625 11.440006 40.332918 11.35734 40.33825 11.272006 40.34892 11.186672 40.343587 11.104006 40.32225 11.024006 40.306249 10.944006 40.276918 10.866673 40.23425 10.792006 40.196916 10.722672 40.151586 10.664006 40.09825 10.616006 40.039587 10.55734 39.967584 10.509339 39.88225 10.472006 39.796918 10.434672 39.70625 10.410673 39.610254 10.400005 39.51425 10.394672 39.415586 10.402673 39.31425 10.424006 39.212919 10.450672 39.11425 10.496006 39.01825 10.560006 38.87425 10.682673 38.73825 10.789339 38.610254 10.880006 38.48225 10.970673 38.34892 11.04534 38.21025 11.104006 38.076917 11.168006 37.92758 11.21334 37.76225 11.240006 37.60225 11.272006 37.412919 11.288006 37.194253 11.288006 36.95425 11.288006 36.73025 11.258673 36.52225 11.200006 36.319585 11.141339 36.14092 11.056006 35.98625 10.944006 35.836919 10.832006 35.716917 10.698672 35.62625 10.544006 35.535585 10.389339 35.49025 10.216006 35.49025 10.024006 35.49025 9.800006 35.548917 9.616006 35.666254 9.472006 35.783586 9.328006 35.94625 9.205339 36.15425 9.104006 36.36225 9.008006 36.60492 8.925339 36.88225 8.856006 37.164918 8.792006 37.468919 8.725339 37.79425 8.656006 38.167585 8.560005 38.53025 8.440006 38.88225 8.296005 39.239587 8.157339 39.55692 7.976006 39.83425 7.752006 40.111585 7.528006 40.335584 7.253339 40.50625 6.928006 40.676916 6.608006 40.76225 6.224006 40.76225 5.776006 40.76225 5.328006 40.668916 4.912006 40.48225 4.528006 40.295587 4.144006 40.039587 3.808005 39.71425 3.520005 39.39425 3.237339 39.012918 3.016006 38.57025 2.856006 38.132917 2.696006 37.65825 2.616006 37.14625 2.616006 36.74625 2.616006 36.359586 2.666673 35.98625 2.768005 35.61825 2.874672 35.279584 3.016006 34.97025 3.192005 34.666254 3.373339 34.399587 3.584005 34.17025 3.824006 33.940916 4.069339 33.76225 4.328006 33.63425 4.600006 33.57025 4.738673 33.532918 4.869339 33.52225 4.992006 33.51692 5.114673 33.53025 5.226673 33.56225 5.328006 33.599584 5.429339 33.65292 5.517339 33.72225 5.592006 33.796918 5.672006 33.879587 5.736006 33.97025 5.784006 34.194253 5.901339 34.399587 5.925339 34.58625 5.856006 34.772916 5.792006 34.967584 5.632006 35.17025 5.376006 35.388917 5.050673 35.668916 4.797339 36.01025 4.616006 36.35692 4.440006 36.756917 4.352006 37.21025 4.352006 37.43425 4.352006 37.652917 4.381339 37.86625 4.440005 38.08492 4.498672 38.279584 4.584005 38.45025 4.696006 38.626249 4.813339 38.764917 4.954672 38.86625 5.120006 38.972917 5.285339 39.02625 5.474672 39.02625 5.688005 39.02625 5.922672 38.972917 6.112006 38.86625 6.256006 38.759584 6.405339 38.620916 6.525339 38.45025 6.616006 38.279584 6.706672 38.090253 6.778672 37.88225 6.832006 37.67425 6.885339 37.46625 6.936006 37.25825 6.984006ZM42.515626 2.712006ZM45.995626 10.168006H46.819627C46.94229 10.168006 47.056959 10.144006 47.163625 10.096006 47.27029 10.053339 47.36096 9.992006 47.435625 9.912006 47.515626 9.837339 47.576959 9.746673 47.619626 9.640006 47.667627 9.53334 47.691625 9.421339 47.691625 9.304007 47.691625 9.181339 47.667627 9.066672 47.619626 8.960006 47.576959 8.853339 47.515626 8.760006 47.435625 8.680006 47.36096 8.605339 47.27029 8.544006 47.163625 8.496006 47.056959 8.453339 46.94229 8.432006 46.819627 8.432006H45.995626V3.592006C45.995626 3.469339 45.971628 3.354672 45.923627 3.248006 45.88096 3.141339 45.819627 3.048006 45.739625 2.968005 45.659627 2.888005 45.56629 2.824005 45.459627 2.776006 45.35829 2.733339 45.24896 2.712006 45.131628 2.712006 45.008958 2.712006 44.89429 2.733339 44.787626 2.776006 44.68629 2.824005 44.595624 2.888005 44.515626 2.968005 44.435628 3.048006 44.371625 3.141339 44.323625 3.248006 44.280958 3.354672 44.259626 3.469339 44.259626 3.592006V8.432006H43.747625C43.624959 8.432006 43.510293 8.453339 43.403627 8.496006 43.29696 8.544006 43.203626 8.608006 43.123628 8.688005 43.048959 8.768005 42.987627 8.86134 42.939626 8.968006 42.896959 9.074673 42.875627 9.186672 42.875627 9.304007 42.875627 9.421339 42.896959 9.53334 42.939626 9.640006 42.987627 9.746673 43.048959 9.837339 43.123628 9.912006 43.203626 9.992006 43.29696 10.053339 43.403627 10.096006 43.510293 10.144006 43.624959 10.168006 43.747625 10.168006H44.259626V11.536006C44.259626 11.658672 44.280958 11.770673 44.323625 11.872006 44.371625 11.978673 44.435628 12.06934 44.515626 12.144006 44.595624 12.224006 44.688959 12.285339 44.795625 12.328006 44.907629 12.376006 45.02496 12.400006 45.147626 12.400006 45.264959 12.400006 45.37429 12.376006 45.475625 12.328006 45.58229 12.285339 45.67296 12.224006 45.747625 12.144006 45.822294 12.06934 45.88096 11.978673 45.923627 11.872006 45.971628 11.770673 45.995626 11.658672 45.995626 11.536006V10.168006ZM48.875 2.712006ZM49.539 6.432006C49.539 6.960006 49.63767 7.453339 49.835 7.912006 50.037668 8.376006 50.312334 8.78134 50.659 9.128006 51.00567 9.474672 51.411 9.746673 51.875 9.944006 52.339 10.146672 52.832334 10.248006 53.355 10.248006 53.808336 10.248006 54.237668 10.173339 54.643 10.024006 55.053667 9.874673 55.427 9.669339 55.763 9.408006 55.85367 9.632006 55.955 9.813339 56.067 9.952005 56.184335 10.096006 56.344335 10.168006 56.547 10.168006 56.79767 10.168006 56.973669 10.088006 57.075 9.928006 57.176336 9.773339 57.227 9.568006 57.227 9.312006V3.600006C57.227 3.47734 57.203 3.362673 57.155 3.256005 57.11233 3.149339 57.051 3.056005 56.971 2.976006 56.891004 2.896006 56.795003 2.832006 56.683 2.784005 56.576333 2.736006 56.461668 2.712006 56.339 2.712006 56.120336 2.712006 55.939004 2.776006 55.795003 2.904006 55.651 3.032005 55.557668 3.192005 55.515 3.384006 55.200334 3.149339 54.861669 2.962672 54.499 2.824006 54.136335 2.685339 53.755 2.616006 53.355 2.616006 52.832334 2.616006 52.339 2.714672 51.875 2.912005 51.411 3.114672 51.00567 3.389338 50.659 3.736006 50.312334 4.082672 50.037668 4.488006 49.835 4.952005 49.63767 5.416006 49.539 5.909339 49.539 6.432006ZM51.275 6.432006C51.275 6.149339 51.328336 5.880006 51.435 5.624006 51.547 5.373339 51.696336 5.152006 51.883 4.960006 52.075 4.773339 52.296335 4.624006 52.547 4.512006 52.79767 4.405339 53.067 4.352006 53.355 4.352006 53.642999 4.352006 53.912336 4.405339 54.163003 4.512006 54.41367 4.624006 54.632337 4.773339 54.819 4.960006 55.005666 5.152006 55.152334 5.373339 55.259 5.624006 55.365667 5.880006 55.419 6.149339 55.419 6.432006 55.419 6.720006 55.365667 6.989339 55.259 7.240006 55.152334 7.496006 55.005666 7.717339 54.819 7.904006 54.632337 8.090672 54.41367 8.237339 54.163003 8.344006 53.912336 8.456006 53.642999 8.512006 53.355 8.512006 53.067 8.512006 52.79767 8.456006 52.547 8.344006 52.296335 8.237339 52.075 8.090672 51.883 7.904006 51.696336 7.717339 51.547 7.496006 51.435 7.240006 51.328336 6.989339 51.275 6.720006 51.275 6.432006ZM59.25 2.712006ZM60.298 9.312006C60.298 9.568006 60.346 9.773339 60.442 9.928006 60.543336 10.088006 60.719335 10.168006 60.97 10.168006 61.188669 10.168006 61.364667 10.08534 61.498 9.920006 61.631338 9.754673 61.74067 9.549339 61.826 9.304007L61.882 9.000006C62.148668 9.352006 62.468667 9.629339 62.842 9.832006 63.220666 10.040006 63.660669 10.146672 64.162 10.152006H64.202C64.490009 10.152006 64.711338 10.06934 64.866 9.904006 65.026 9.744006 65.106 9.538672 65.106 9.288006 65.106 9.165339 65.082 9.050673 65.034 8.944006 64.986 8.837339 64.919338 8.744006 64.834 8.664005 64.754 8.589339 64.658 8.528006 64.546 8.480005 64.43933 8.43734 64.32467 8.416006 64.202 8.416006H64.162C63.863336 8.410673 63.586004 8.346672 63.33 8.224006 63.074 8.106672 62.852666 7.946672 62.666 7.744006 62.479337 7.541339 62.33 7.304006 62.218 7.032006 62.106 6.765339 62.044668 6.480006 62.034 6.176006V3.600006C62.034 3.354672 61.954 3.144006 61.794 2.968005 61.63933 2.797338 61.43667 2.712006 61.186 2.712006 61.06333 2.712006 60.946 2.736006 60.834 2.784005 60.727334 2.832006 60.634 2.896006 60.554 2.976006 60.474 3.056005 60.41 3.149339 60.362 3.256005 60.319334 3.362673 60.298 3.47734 60.298 3.600006V9.312006ZM66.671878 2.712006ZM70.15188 10.168006H70.975879C71.09854 10.168006 71.21321 10.144006 71.31988 10.096006 71.426548 10.053339 71.517208 9.992006 71.59187 9.912006 71.671878 9.837339 71.73321 9.746673 71.77588 9.640006 71.823879 9.53334 71.84788 9.421339 71.84788 9.304007 71.84788 9.181339 71.823879 9.066672 71.77588 8.960006 71.73321 8.853339 71.671878 8.760006 71.59187 8.680006 71.517208 8.605339 71.426548 8.544006 71.31988 8.496006 71.21321 8.453339 71.09854 8.432006 70.975879 8.432006H70.15188V3.592006C70.15188 3.469339 70.12788 3.354672 70.07987 3.248006 70.03721 3.141339 69.975879 3.048006 69.895877 2.968005 69.81588 2.888005 69.72254 2.824005 69.615879 2.776006 69.51454 2.733339 69.405208 2.712006 69.28787 2.712006 69.16521 2.712006 69.050548 2.733339 68.94388 2.776006 68.842548 2.824005 68.75188 2.888005 68.671878 2.968005 68.59187 3.048006 68.52787 3.141339 68.47987 3.248006 68.43721 3.354672 68.41588 3.469339 68.41588 3.592006V8.432006H67.90388C67.781208 8.432006 67.66654 8.453339 67.559879 8.496006 67.45321 8.544006 67.35987 8.608006 67.27988 8.688005 67.20521 8.768005 67.143878 8.86134 67.09588 8.968006 67.05321 9.074673 67.031879 9.186672 67.031879 9.304007 67.031879 9.421339 67.05321 9.53334 67.09588 9.640006 67.143878 9.746673 67.20521 9.837339 67.27988 9.912006 67.35987 9.992006 67.45321 10.053339 67.559879 10.096006 67.66654 10.144006 67.781208 10.168006 67.90388 10.168006H68.41588V11.536006C68.41588 11.658672 68.43721 11.770673 68.47987 11.872006 68.52787 11.978673 68.59187 12.06934 68.671878 12.144006 68.75188 12.224006 68.84521 12.285339 68.95187 12.328006 69.06387 12.376006 69.181209 12.400006 69.30388 12.400006 69.42121 12.400006 69.53054 12.376006 69.631877 12.328006 69.73854 12.285339 69.82921 12.224006 69.90388 12.144006 69.978549 12.06934 70.03721 11.978673 70.07987 11.872006 70.12788 11.770673 70.15188 11.658672 70.15188 11.536006V10.168006ZM73.03125 2.712006ZM75.62325 5.656006C75.69258 5.453339 75.78858 5.272006 75.91125 5.112006 76.039249 4.952005 76.18591 4.813339 76.35125 4.696006 76.51659 4.584005 76.697917 4.496006 76.89525 4.432006 77.097919 4.373339 77.308589 4.344006 77.52725 4.344006 78.07125 4.344006 78.50058 4.488006 78.81525 4.776006 78.97525 4.888006 79.12725 4.954672 79.27125 4.976006 79.41525 4.997339 79.55392 4.986672 79.68725 4.944006 79.777919 4.912006 79.85792 4.861339 79.92725 4.792006 79.99658 4.728006 80.05525 4.656006 80.10325 4.576006 80.209918 4.405339 80.25525 4.213339 80.23925 4.000006 80.22325 3.786673 80.113918 3.59734 79.91125 3.432006 79.793918 3.325339 79.66058 3.221339 79.51125 3.120006 79.361919 3.024006 79.191249 2.938672 78.99925 2.864006 78.80725 2.789339 78.588588 2.730672 78.34325 2.688005 78.10325 2.640006 77.83125 2.616006 77.52725 2.616006 76.99925 2.616006 76.50325 2.714672 76.03925 2.912005 75.57525 3.114672 75.169918 3.389338 74.82325 3.736006 74.476589 4.082672 74.20192 4.485339 73.99925 4.944006 73.796588 5.408006 73.69525 5.904006 73.69525 6.432006 73.69525 6.960006 73.796588 7.456006 73.99925 7.920006 74.20192 8.384007 74.476589 8.786673 74.82325 9.128006 75.169918 9.474672 75.57525 9.746673 76.03925 9.944006 76.50325 10.146672 76.99925 10.248006 77.52725 10.248006 78.044589 10.248006 78.535259 10.14934 78.99925 9.952005 79.46325 9.754673 79.86858 9.485339 80.21525 9.144006 80.56192 8.808006 80.836589 8.410673 81.03925 7.952006 81.24725 7.493339 81.35392 7.002672 81.35925 6.480006 81.35925 6.234673 81.27925 6.034672 81.11925 5.880006 80.964588 5.730672 80.759258 5.656006 80.50325 5.656006H75.62325ZM79.57525 7.096006C79.51659 7.314672 79.42325 7.512006 79.29525 7.688006 79.16725 7.864006 79.01525 8.013339 78.83925 8.136005 78.663249 8.258673 78.46592 8.352006 78.24725 8.416006 78.03392 8.480005 77.80459 8.512006 77.55925 8.512006 77.31392 8.512006 77.08192 8.477339 76.86325 8.408006 76.64992 8.338673 76.45525 8.242673 76.27925 8.120007 76.10858 7.997339 75.961917 7.848006 75.83925 7.672006 75.72192 7.501339 75.63392 7.309339 75.57525 7.096006H79.57525ZM82.984378 2.712006ZM91.40838 3.560005C91.40838 3.309339 91.35771 3.104006 91.25638 2.944006 91.155048 2.789339 90.97904 2.712006 90.72838 2.712006 90.62171 2.712006 90.531047 2.730672 90.456378 2.768005 90.38171 2.805339 90.31771 2.850673 90.26437 2.904006 90.21638 2.957339 90.17904 3.008006 90.152378 3.056005 90.12571 3.109339 90.10704 3.152005 90.096378 3.184006L89.968379 3.616006C89.627048 3.301339 89.23771 3.056005 88.80038 2.880006 88.363048 2.704006 87.89905 2.616006 87.40838 2.616006 86.88038 2.616006 86.38438 2.714672 85.92037 2.912005 85.456378 3.114672 85.05104 3.389338 84.70438 3.736006 84.363048 4.082672 84.09371 4.488006 83.89638 4.952005 83.69904 5.416006 83.60037 5.909339 83.60037 6.432006 83.60037 6.960006 83.69904 7.456006 83.89638 7.920006 84.09371 8.384007 84.363048 8.786673 84.70438 9.128006 85.05104 9.474672 85.456378 9.746673 85.92037 9.944006 86.38438 10.146672 86.88038 10.248006 87.40838 10.248006 87.82971 10.248006 88.229709 10.181339 88.608379 10.048006 88.99237 9.920006 89.344379 9.736006 89.664379 9.496006L89.67238 12.136006C89.67238 12.38134 89.74971 12.589339 89.90437 12.760006 90.059047 12.936006 90.26437 13.024006 90.52038 13.024006 90.64304 13.024006 90.757709 13.000006 90.86437 12.952006 90.97638 12.904006 91.07238 12.840006 91.152378 12.760006 91.232379 12.680006 91.29371 12.586673 91.33637 12.480006 91.38438 12.37334 91.40838 12.258673 91.40838 12.136006V3.560005ZM89.48837 6.432006C89.48837 6.720006 89.43237 6.989339 89.32037 7.240006 89.21371 7.496006 89.06438 7.717339 88.872379 7.904006 88.68571 8.090672 88.46438 8.237339 88.208377 8.344006 87.95771 8.456006 87.69104 8.512006 87.40838 8.512006 87.12038 8.512006 86.84837 8.456006 86.59238 8.344006 86.34171 8.237339 86.12305 8.090672 85.93638 7.904006 85.74971 7.717339 85.60304 7.496006 85.496379 7.240006 85.38971 6.989339 85.33637 6.720006 85.33637 6.432006 85.33637 6.149339 85.38971 5.880006 85.496379 5.624006 85.60304 5.373339 85.74971 5.152006 85.93638 4.960006 86.12305 4.773339 86.34171 4.624006 86.59238 4.512006 86.84837 4.405339 87.12038 4.352006 87.40838 4.352006 87.69638 4.352006 87.96571 4.405339 88.21638 4.512006 88.46704 4.624006 88.68571 4.773339 88.872379 4.960006 89.06438 5.152006 89.21371 5.373339 89.32037 5.624006 89.43237 5.880006 89.48837 6.149339 89.48837 6.432006ZM0 1.112005H92.44038V.312006H0Z" fill="#ffffff"/>
<text xml:space="preserve" transform="matrix(1 0 -0 1 20 27.712006)" font-size="16" font-family="Unnamed"><tspan y="-2.712006" x="0 12.02325 21.921502 28.288502 32.88225 42.491628 48.843004 59.210004 66.623889 72.975269 82.92039">Get Started</tspan></text>
<path transform="matrix(1,0,0,-1,128.17871,23.087922)" d="M5.51115 3.988781 2.367654 6.217846C1.374342 6.922208 0 6.211952 0 4.994252V.907711C0-.253733 1.263157-.974537 2.263081-.383686L5.406576 1.473793C6.342257 2.026682 6.397702 3.360123 5.51115 3.988781Z" fill="#ffffff"/>
<path transform="matrix(1,0,0,-1,123,21.024903)" d="M0 1.024635C0 1.622021 .510578 2.091821 1.1059 2.042211L3.701667 1.825897C4.118394 1.791169 4.438934 1.442807 4.438934 1.024635 4.438934 .606464 4.118394 .258101 3.701668 .223374L1.105901 .00706C.510578-.04255 0 .427249 0 1.024635Z" fill="#ffffff"/>
</svg>
