<svg width="156" height="40" viewBox="0 0 156 40" fill="none" xmlns="http://www.w3.org/2000/svg">
<rect width="155.577" height="40" rx="20" fill="#31AEB6"/>
<path d="M29.576 16.232C29.6613 16.312 29.7227 16.4053 29.76 16.512C29.8027 16.6187 29.824 16.7253 29.824 16.832C29.824 16.9387 29.8027 17.0453 29.76 17.152C29.7227 17.2587 29.6613 17.352 29.576 17.432C29.4907 17.5173 29.3947 17.5813 29.288 17.624C29.1867 17.6667 29.08 17.6907 28.968 17.696C28.856 17.7013 28.7467 17.6853 28.64 17.648C28.5333 17.6053 28.4373 17.5413 28.352 17.456C28 17.1093 27.6107 16.8507 27.184 16.68C26.7627 16.5093 26.3253 16.424 25.872 16.424C25.408 16.424 24.968 16.5147 24.552 16.696C24.136 16.872 23.7707 17.1173 23.456 17.432C23.1413 17.7413 22.8907 18.1093 22.704 18.536C22.5227 18.9573 22.432 19.4107 22.432 19.896C22.432 20.36 22.5173 20.8 22.688 21.216C22.864 21.632 23.104 22 23.408 22.32C23.7173 22.6347 24.08 22.888 24.496 23.08C24.9173 23.2667 25.3707 23.36 25.856 23.36C26.272 23.3653 26.672 23.312 27.056 23.2C27.44 23.0827 27.8053 22.88 28.152 22.592V21.464H26.944C26.8213 21.464 26.7067 21.4427 26.6 21.4C26.4987 21.352 26.4107 21.288 26.336 21.208C26.2613 21.128 26.2 21.0347 26.152 20.928C26.1093 20.8213 26.088 20.7067 26.088 20.584C26.088 20.4667 26.1093 20.3573 26.152 20.256C26.2 20.1493 26.2613 20.0587 26.336 19.984C26.4107 19.904 26.4987 19.8427 26.6 19.8C26.7067 19.752 26.8213 19.728 26.944 19.728H29.016C29.1387 19.728 29.2533 19.752 29.36 19.8C29.4667 19.8427 29.56 19.9013 29.64 19.976C29.72 20.0507 29.7813 20.1413 29.824 20.248C29.872 20.3493 29.896 20.4613 29.896 20.584V22.976C29.896 23.1147 29.8693 23.2347 29.816 23.336C29.7627 23.4373 29.6933 23.5333 29.608 23.624C29.016 24.152 28.4027 24.5307 27.768 24.76C27.1333 24.9893 26.4773 25.1013 25.8 25.096C25.3413 25.096 24.896 25.0347 24.464 24.912C24.0373 24.784 23.6347 24.608 23.256 24.384C22.8773 24.16 22.5307 23.8907 22.216 23.576C21.9013 23.2613 21.632 22.912 21.408 22.528C21.184 22.144 21.008 21.7307 20.88 21.288C20.7573 20.8453 20.696 20.384 20.696 19.904C20.696 19.1947 20.8267 18.5253 21.088 17.896C21.3547 17.2613 21.72 16.7067 22.184 16.232C22.648 15.7573 23.192 15.3813 23.816 15.104C24.4453 14.8267 25.1227 14.688 25.848 14.688C26.5733 14.688 27.2453 14.8187 27.864 15.08C28.488 15.336 29.0587 15.72 29.576 16.232ZM34.6233 22.056C34.6926 22.2587 34.7886 22.44 34.9113 22.6C35.0393 22.76 35.1859 22.8987 35.3513 23.016C35.5166 23.128 35.6979 23.216 35.8953 23.28C36.0979 23.3387 36.3086 23.368 36.5273 23.368C37.0713 23.368 37.5006 23.224 37.8153 22.936C37.9753 22.824 38.1273 22.7573 38.2713 22.736C38.4153 22.7147 38.5539 22.7253 38.6873 22.768C38.7779 22.8 38.8579 22.8507 38.9273 22.92C38.9966 22.984 39.0553 23.056 39.1033 23.136C39.2099 23.3067 39.2553 23.4987 39.2393 23.712C39.2233 23.9253 39.1139 24.1147 38.9113 24.28C38.7939 24.3867 38.6606 24.4907 38.5113 24.592C38.3619 24.688 38.1913 24.7733 37.9993 24.848C37.8073 24.9227 37.5886 24.9813 37.3433 25.024C37.1033 25.072 36.8313 25.096 36.5273 25.096C35.9993 25.096 35.5033 24.9973 35.0393 24.8C34.5753 24.5973 34.1699 24.3227 33.8233 23.976C33.4766 23.6293 33.2019 23.2267 32.9993 22.768C32.7966 22.304 32.6953 21.808 32.6953 21.28C32.6953 20.752 32.7966 20.256 32.9993 19.792C33.2019 19.328 33.4766 18.9253 33.8233 18.584C34.1699 18.2373 34.5753 17.9653 35.0393 17.768C35.5033 17.5653 35.9993 17.464 36.5273 17.464C37.0446 17.464 37.5353 17.5627 37.9993 17.76C38.4633 17.9573 38.8686 18.2267 39.2153 18.568C39.5619 18.904 39.8366 19.3013 40.0393 19.76C40.2473 20.2187 40.3539 20.7093 40.3593 21.232C40.3593 21.4773 40.2793 21.6773 40.1193 21.832C39.9646 21.9813 39.7593 22.056 39.5033 22.056H34.6233ZM38.5753 20.616C38.5166 20.3973 38.4233 20.2 38.2953 20.024C38.1673 19.848 38.0153 19.6987 37.8393 19.576C37.6633 19.4533 37.4659 19.36 37.2473 19.296C37.0339 19.232 36.8046 19.2 36.5593 19.2C36.3139 19.2 36.0819 19.2347 35.8633 19.304C35.6499 19.3733 35.4553 19.4693 35.2793 19.592C35.1086 19.7147 34.9619 19.864 34.8393 20.04C34.7219 20.2107 34.6339 20.4027 34.5753 20.616H38.5753ZM45.4175 17.544H46.2415C46.3642 17.544 46.4788 17.568 46.5855 17.616C46.6922 17.6587 46.7828 17.72 46.8575 17.8C46.9375 17.8747 46.9988 17.9653 47.0415 18.072C47.0895 18.1787 47.1135 18.2907 47.1135 18.408C47.1135 18.5307 47.0895 18.6453 47.0415 18.752C46.9988 18.8587 46.9375 18.952 46.8575 19.032C46.7828 19.1067 46.6922 19.168 46.5855 19.216C46.4788 19.2587 46.3642 19.28 46.2415 19.28H45.4175V24.12C45.4175 24.2427 45.3935 24.3573 45.3455 24.464C45.3028 24.5707 45.2415 24.664 45.1615 24.744C45.0815 24.824 44.9882 24.888 44.8815 24.936C44.7802 24.9787 44.6708 25 44.5535 25C44.4308 25 44.3162 24.9787 44.2095 24.936C44.1082 24.888 44.0175 24.824 43.9375 24.744C43.8575 24.664 43.7935 24.5707 43.7455 24.464C43.7028 24.3573 43.6815 24.2427 43.6815 24.12V19.28H43.1695C43.0468 19.28 42.9322 19.2587 42.8255 19.216C42.7188 19.168 42.6255 19.104 42.5455 19.024C42.4708 18.944 42.4095 18.8507 42.3615 18.744C42.3188 18.6373 42.2975 18.5253 42.2975 18.408C42.2975 18.2907 42.3188 18.1787 42.3615 18.072C42.4095 17.9653 42.4708 17.8747 42.5455 17.8C42.6255 17.72 42.7188 17.6587 42.8255 17.616C42.9322 17.568 43.0468 17.544 43.1695 17.544H43.6815V16.176C43.6815 16.0533 43.7028 15.9413 43.7455 15.84C43.7935 15.7333 43.8575 15.6427 43.9375 15.568C44.0175 15.488 44.1108 15.4267 44.2175 15.384C44.3295 15.336 44.4468 15.312 44.5695 15.312C44.6868 15.312 44.7962 15.336 44.8975 15.384C45.0042 15.4267 45.0948 15.488 45.1695 15.568C45.2442 15.6427 45.3028 15.7333 45.3455 15.84C45.3935 15.9413 45.4175 16.0533 45.4175 16.176V17.544ZM57.2583 20.728C56.7463 20.632 56.2769 20.504 55.8503 20.344C55.4236 20.184 55.0529 19.9813 54.7383 19.736C54.4289 19.4907 54.1863 19.2027 54.0103 18.872C53.8396 18.536 53.7543 18.1467 53.7543 17.704C53.7543 17.256 53.8476 16.848 54.0343 16.48C54.2209 16.112 54.4716 15.7947 54.7863 15.528C55.1009 15.2613 55.4636 15.056 55.8743 14.912C56.2849 14.7627 56.7143 14.688 57.1623 14.688C57.4769 14.688 57.7863 14.72 58.0903 14.784C58.3996 14.848 58.6903 14.944 58.9623 15.072C59.2343 15.1947 59.4823 15.352 59.7063 15.544C59.9303 15.7307 60.1143 15.9467 60.2583 16.192C60.3063 16.272 60.3329 16.3547 60.3383 16.44C60.3489 16.5253 60.3436 16.608 60.3223 16.688C60.3063 16.768 60.2769 16.8453 60.2343 16.92C60.1969 16.9893 60.1516 17.048 60.0983 17.096C60.0396 17.1547 59.9676 17.2027 59.8823 17.24C59.7969 17.2773 59.7063 17.3013 59.6103 17.312C59.5143 17.3173 59.4156 17.3093 59.3143 17.288C59.2129 17.2613 59.1143 17.216 59.0183 17.152C58.8743 17.0293 58.7383 16.9227 58.6103 16.832C58.4823 16.7413 58.3489 16.6667 58.2103 16.608C58.0769 16.544 57.9276 16.4987 57.7623 16.472C57.6023 16.44 57.4129 16.424 57.1943 16.424C56.9543 16.424 56.7303 16.4533 56.5223 16.512C56.3196 16.5707 56.1409 16.656 55.9863 16.768C55.8369 16.88 55.7169 17.0133 55.6263 17.168C55.5356 17.3227 55.4903 17.496 55.4903 17.688C55.4903 17.912 55.5489 18.096 55.6663 18.24C55.7836 18.384 55.9463 18.5067 56.1543 18.608C56.3623 18.704 56.6049 18.7867 56.8823 18.856C57.1649 18.92 57.4689 18.9867 57.7943 19.056C58.1676 19.152 58.5303 19.272 58.8823 19.416C59.2396 19.5547 59.5569 19.736 59.8343 19.96C60.1116 20.184 60.3356 20.4587 60.5063 20.784C60.6769 21.104 60.7623 21.488 60.7623 21.936C60.7623 22.384 60.6689 22.8 60.4823 23.184C60.2956 23.568 60.0396 23.904 59.7143 24.192C59.3943 24.4747 59.0129 24.696 58.5703 24.856C58.1329 25.016 57.6583 25.096 57.1463 25.096C56.7463 25.096 56.3596 25.0453 55.9863 24.944C55.6183 24.8373 55.2796 24.696 54.9703 24.52C54.6663 24.3387 54.3996 24.128 54.1703 23.888C53.9409 23.6427 53.7623 23.384 53.6343 23.112C53.5703 22.9733 53.5329 22.8427 53.5223 22.72C53.5169 22.5973 53.5303 22.4853 53.5623 22.384C53.5996 22.2827 53.6529 22.1947 53.7223 22.12C53.7969 22.04 53.8796 21.976 53.9703 21.928C54.1943 21.8107 54.3996 21.7867 54.5863 21.856C54.7729 21.92 54.9676 22.08 55.1703 22.336C55.3889 22.6613 55.6689 22.9147 56.0103 23.096C56.3569 23.272 56.7569 23.36 57.2103 23.36C57.4343 23.36 57.6529 23.3307 57.8663 23.272C58.0849 23.2133 58.2796 23.128 58.4503 23.016C58.6263 22.8987 58.7649 22.7573 58.8663 22.592C58.9729 22.4267 59.0263 22.2373 59.0263 22.024C59.0263 21.7893 58.9729 21.6 58.8663 21.456C58.7596 21.3067 58.6209 21.1867 58.4503 21.096C58.2796 21.0053 58.0903 20.9333 57.8823 20.88C57.6743 20.8267 57.4663 20.776 57.2583 20.728ZM65.9956 17.544H66.8196C66.9423 17.544 67.057 17.568 67.1636 17.616C67.2703 17.6587 67.361 17.72 67.4356 17.8C67.5156 17.8747 67.577 17.9653 67.6196 18.072C67.6676 18.1787 67.6916 18.2907 67.6916 18.408C67.6916 18.5307 67.6676 18.6453 67.6196 18.752C67.577 18.8587 67.5156 18.952 67.4356 19.032C67.361 19.1067 67.2703 19.168 67.1636 19.216C67.057 19.2587 66.9423 19.28 66.8196 19.28H65.9956V24.12C65.9956 24.2427 65.9716 24.3573 65.9236 24.464C65.881 24.5707 65.8196 24.664 65.7396 24.744C65.6596 24.824 65.5663 24.888 65.4596 24.936C65.3583 24.9787 65.249 25 65.1316 25C65.009 25 64.8943 24.9787 64.7876 24.936C64.6863 24.888 64.5956 24.824 64.5156 24.744C64.4356 24.664 64.3716 24.5707 64.3236 24.464C64.281 24.3573 64.2596 24.2427 64.2596 24.12V19.28H63.7476C63.625 19.28 63.5103 19.2587 63.4036 19.216C63.297 19.168 63.2036 19.104 63.1236 19.024C63.049 18.944 62.9876 18.8507 62.9396 18.744C62.897 18.6373 62.8756 18.5253 62.8756 18.408C62.8756 18.2907 62.897 18.1787 62.9396 18.072C62.9876 17.9653 63.049 17.8747 63.1236 17.8C63.2036 17.72 63.297 17.6587 63.4036 17.616C63.5103 17.568 63.625 17.544 63.7476 17.544H64.2596V16.176C64.2596 16.0533 64.281 15.9413 64.3236 15.84C64.3716 15.7333 64.4356 15.6427 64.5156 15.568C64.5956 15.488 64.689 15.4267 64.7956 15.384C64.9076 15.336 65.025 15.312 65.1476 15.312C65.265 15.312 65.3743 15.336 65.4756 15.384C65.5823 15.4267 65.673 15.488 65.7476 15.568C65.8223 15.6427 65.881 15.7333 65.9236 15.84C65.9716 15.9413 65.9956 16.0533 65.9956 16.176V17.544ZM69.539 21.28C69.539 20.752 69.6377 20.2587 69.835 19.8C70.0377 19.336 70.3123 18.9307 70.659 18.584C71.0057 18.2373 71.411 17.9653 71.875 17.768C72.339 17.5653 72.8323 17.464 73.355 17.464C73.8083 17.464 74.2377 17.5387 74.643 17.688C75.0537 17.8373 75.427 18.0427 75.763 18.304C75.8537 18.08 75.955 17.8987 76.067 17.76C76.1843 17.616 76.3443 17.544 76.547 17.544C76.7977 17.544 76.9737 17.624 77.075 17.784C77.1763 17.9387 77.227 18.144 77.227 18.4V24.112C77.227 24.2347 77.203 24.3493 77.155 24.456C77.1123 24.5627 77.051 24.656 76.971 24.736C76.891 24.816 76.795 24.88 76.683 24.928C76.5763 24.976 76.4617 25 76.339 25C76.1203 25 75.939 24.936 75.795 24.808C75.651 24.68 75.5577 24.52 75.515 24.328C75.2003 24.5627 74.8617 24.7493 74.499 24.888C74.1363 25.0267 73.755 25.096 73.355 25.096C72.8323 25.096 72.339 24.9973 71.875 24.8C71.411 24.5973 71.0057 24.3227 70.659 23.976C70.3123 23.6293 70.0377 23.224 69.835 22.76C69.6377 22.296 69.539 21.8027 69.539 21.28ZM71.275 21.28C71.275 21.5627 71.3283 21.832 71.435 22.088C71.547 22.3387 71.6963 22.56 71.883 22.752C72.075 22.9387 72.2963 23.088 72.547 23.2C72.7977 23.3067 73.067 23.36 73.355 23.36C73.643 23.36 73.9123 23.3067 74.163 23.2C74.4137 23.088 74.6323 22.9387 74.819 22.752C75.0057 22.56 75.1523 22.3387 75.259 22.088C75.3657 21.832 75.419 21.5627 75.419 21.28C75.419 20.992 75.3657 20.7227 75.259 20.472C75.1523 20.216 75.0057 19.9947 74.819 19.808C74.6323 19.6213 74.4137 19.4747 74.163 19.368C73.9123 19.256 73.643 19.2 73.355 19.2C73.067 19.2 72.7977 19.256 72.547 19.368C72.2963 19.4747 72.075 19.6213 71.883 19.808C71.6963 19.9947 71.547 20.216 71.435 20.472C71.3283 20.7227 71.275 20.992 71.275 21.28ZM80.298 18.4C80.298 18.144 80.346 17.9387 80.442 17.784C80.5433 17.624 80.7193 17.544 80.97 17.544C81.1887 17.544 81.3647 17.6267 81.498 17.792C81.6313 17.9573 81.7407 18.1627 81.826 18.408L81.882 18.712C82.1487 18.36 82.4687 18.0827 82.842 17.88C83.2207 17.672 83.6607 17.5653 84.162 17.56H84.202C84.49 17.56 84.7113 17.6427 84.866 17.808C85.026 17.968 85.106 18.1733 85.106 18.424C85.106 18.5467 85.082 18.6613 85.034 18.768C84.986 18.8747 84.9193 18.968 84.834 19.048C84.754 19.1227 84.658 19.184 84.546 19.232C84.4393 19.2747 84.3247 19.296 84.202 19.296H84.162C83.8633 19.3013 83.586 19.3653 83.33 19.488C83.074 19.6053 82.8527 19.7653 82.666 19.968C82.4793 20.1707 82.33 20.408 82.218 20.68C82.106 20.9467 82.0447 21.232 82.034 21.536V24.112C82.034 24.3573 81.954 24.568 81.794 24.744C81.6393 24.9147 81.4367 25 81.186 25C81.0633 25 80.946 24.976 80.834 24.928C80.7273 24.88 80.634 24.816 80.554 24.736C80.474 24.656 80.41 24.5627 80.362 24.456C80.3193 24.3493 80.298 24.2347 80.298 24.112V18.4ZM90.1519 17.544H90.9759C91.0985 17.544 91.2132 17.568 91.3199 17.616C91.4265 17.6587 91.5172 17.72 91.5919 17.8C91.6719 17.8747 91.7332 17.9653 91.7759 18.072C91.8239 18.1787 91.8479 18.2907 91.8479 18.408C91.8479 18.5307 91.8239 18.6453 91.7759 18.752C91.7332 18.8587 91.6719 18.952 91.5919 19.032C91.5172 19.1067 91.4265 19.168 91.3199 19.216C91.2132 19.2587 91.0985 19.28 90.9759 19.28H90.1519V24.12C90.1519 24.2427 90.1279 24.3573 90.0799 24.464C90.0372 24.5707 89.9759 24.664 89.8959 24.744C89.8159 24.824 89.7225 24.888 89.6159 24.936C89.5145 24.9787 89.4052 25 89.2879 25C89.1652 25 89.0505 24.9787 88.9439 24.936C88.8425 24.888 88.7519 24.824 88.6719 24.744C88.5919 24.664 88.5279 24.5707 88.4799 24.464C88.4372 24.3573 88.4159 24.2427 88.4159 24.12V19.28H87.9039C87.7812 19.28 87.6665 19.2587 87.5599 19.216C87.4532 19.168 87.3599 19.104 87.2799 19.024C87.2052 18.944 87.1439 18.8507 87.0959 18.744C87.0532 18.6373 87.0319 18.5253 87.0319 18.408C87.0319 18.2907 87.0532 18.1787 87.0959 18.072C87.1439 17.9653 87.2052 17.8747 87.2799 17.8C87.3599 17.72 87.4532 17.6587 87.5599 17.616C87.6665 17.568 87.7812 17.544 87.9039 17.544H88.4159V16.176C88.4159 16.0533 88.4372 15.9413 88.4799 15.84C88.5279 15.7333 88.5919 15.6427 88.6719 15.568C88.7519 15.488 88.8452 15.4267 88.9519 15.384C89.0639 15.336 89.1812 15.312 89.3039 15.312C89.4212 15.312 89.5305 15.336 89.6319 15.384C89.7385 15.4267 89.8292 15.488 89.9039 15.568C89.9785 15.6427 90.0372 15.7333 90.0799 15.84C90.1279 15.9413 90.1519 16.0533 90.1519 16.176V17.544ZM95.6233 22.056C95.6926 22.2587 95.7886 22.44 95.9113 22.6C96.0393 22.76 96.1859 22.8987 96.3513 23.016C96.5166 23.128 96.6979 23.216 96.8953 23.28C97.0979 23.3387 97.3086 23.368 97.5273 23.368C98.0713 23.368 98.5006 23.224 98.8153 22.936C98.9753 22.824 99.1273 22.7573 99.2713 22.736C99.4153 22.7147 99.5539 22.7253 99.6873 22.768C99.7779 22.8 99.8579 22.8507 99.9273 22.92C99.9966 22.984 100.055 23.056 100.103 23.136C100.21 23.3067 100.255 23.4987 100.239 23.712C100.223 23.9253 100.114 24.1147 99.9113 24.28C99.7939 24.3867 99.6606 24.4907 99.5113 24.592C99.3619 24.688 99.1913 24.7733 98.9993 24.848C98.8073 24.9227 98.5886 24.9813 98.3433 25.024C98.1033 25.072 97.8313 25.096 97.5273 25.096C96.9993 25.096 96.5033 24.9973 96.0393 24.8C95.5753 24.5973 95.1699 24.3227 94.8233 23.976C94.4766 23.6293 94.2019 23.2267 93.9993 22.768C93.7966 22.304 93.6953 21.808 93.6953 21.28C93.6953 20.752 93.7966 20.256 93.9993 19.792C94.2019 19.328 94.4766 18.9253 94.8233 18.584C95.1699 18.2373 95.5753 17.9653 96.0393 17.768C96.5033 17.5653 96.9993 17.464 97.5273 17.464C98.0446 17.464 98.5353 17.5627 98.9993 17.76C99.4633 17.9573 99.8686 18.2267 100.215 18.568C100.562 18.904 100.837 19.3013 101.039 19.76C101.247 20.2187 101.354 20.7093 101.359 21.232C101.359 21.4773 101.279 21.6773 101.119 21.832C100.965 21.9813 100.759 22.056 100.503 22.056H95.6233ZM99.5753 20.616C99.5166 20.3973 99.4233 20.2 99.2953 20.024C99.1673 19.848 99.0153 19.6987 98.8393 19.576C98.6633 19.4533 98.4659 19.36 98.2473 19.296C98.0339 19.232 97.8046 19.2 97.5593 19.2C97.3139 19.2 97.0819 19.2347 96.8633 19.304C96.6499 19.3733 96.4553 19.4693 96.2793 19.592C96.1086 19.7147 95.9619 19.864 95.8393 20.04C95.7219 20.2107 95.6339 20.4027 95.5753 20.616H99.5753ZM111.408 24.152C111.408 24.4027 111.358 24.608 111.256 24.768C111.155 24.9227 110.979 25 110.728 25C110.622 25 110.531 24.9813 110.456 24.944C110.382 24.9067 110.318 24.8613 110.264 24.808C110.216 24.7547 110.179 24.704 110.152 24.656C110.126 24.6027 110.107 24.56 110.096 24.528L109.968 24.096C109.627 24.4107 109.238 24.656 108.8 24.832C108.363 25.008 107.899 25.096 107.408 25.096C106.88 25.096 106.384 24.9973 105.92 24.8C105.456 24.5973 105.051 24.3227 104.704 23.976C104.363 23.6293 104.094 23.224 103.896 22.76C103.699 22.296 103.6 21.8027 103.6 21.28C103.6 20.752 103.699 20.256 103.896 19.792C104.094 19.328 104.363 18.9253 104.704 18.584C105.051 18.2373 105.456 17.9653 105.92 17.768C106.384 17.5653 106.88 17.464 107.408 17.464C107.83 17.464 108.23 17.5307 108.608 17.664C108.992 17.792 109.344 17.976 109.664 18.216L109.672 15.576C109.672 15.3307 109.75 15.1227 109.904 14.952C110.059 14.776 110.264 14.688 110.52 14.688C110.643 14.688 110.758 14.712 110.864 14.76C110.976 14.808 111.072 14.872 111.152 14.952C111.232 15.032 111.294 15.1253 111.336 15.232C111.384 15.3387 111.408 15.4533 111.408 15.576V24.152ZM109.488 21.28C109.488 20.992 109.432 20.7227 109.32 20.472C109.214 20.216 109.064 19.9947 108.872 19.808C108.686 19.6213 108.464 19.4747 108.208 19.368C107.958 19.256 107.691 19.2 107.408 19.2C107.12 19.2 106.848 19.256 106.592 19.368C106.342 19.4747 106.123 19.6213 105.936 19.808C105.75 19.9947 105.603 20.216 105.496 20.472C105.39 20.7227 105.336 20.992 105.336 21.28C105.336 21.5627 105.39 21.832 105.496 22.088C105.603 22.3387 105.75 22.56 105.936 22.752C106.123 22.9387 106.342 23.088 106.592 23.2C106.848 23.3067 107.12 23.36 107.408 23.36C107.696 23.36 107.966 23.3067 108.216 23.2C108.467 23.088 108.686 22.9387 108.872 22.752C109.064 22.56 109.214 22.3387 109.32 22.088C109.432 21.832 109.488 21.5627 109.488 21.28Z" fill="white"/>
<path d="M20 26.6H112.44V27.4H20V26.6Z" fill="white"/>
<path d="M133.69 19.0991L130.546 16.8701C129.553 16.1657 128.179 16.876 128.179 18.0937V22.1802C128.179 23.3417 129.442 24.0625 130.442 23.4716L133.585 21.6141C134.521 21.0612 134.576 19.7278 133.69 19.0991Z" fill="white"/>
<path d="M123 20.0003C123 19.4029 123.511 18.9331 124.106 18.9827L126.702 19.199C127.118 19.2337 127.439 19.5821 127.439 20.0003C127.439 20.4184 127.118 20.7668 126.702 20.8015L124.106 21.0178C123.511 21.0675 123 20.5977 123 20.0003Z" fill="white"/>
</svg>
